# xmcd
#
# Track frame offsets: 
#        150
#        12847
#        23662
#        38200
#        53262
#        65375
#        77745
#        90325
#        101150
#        120150
#        130517
#        141050
#        151427
#        167470
#        179825
#        197800
#        215492
#        229025
#        244097
#        260235
#        273005
#        288870
#        303317
#        323572
#
# Disc length: 4521 seconds
#
# Revision: 2
# Processed by: cddbd v1.5.2PL0 Copyright (c) Steve Scherf et al.
# Submitted via: ExactAudioCopyFreeDBPlugin 1.0
#
DISCID=3711a718
DTITLE=Aretha Franklin - Aretha: Queen Of Soul - The Very Best Of Aret
DTITLE=ha Franklin
DYEAR=1994
DGENRE=Soul
TTITLE0=I Never Loved A Man (The Way I Love You)
TTITLE1=Respect
TTITLE2=Do Right Woman, Do Right Man
TTITLE3=Dr. Feelgood (Love Is A Serious Business)
TTITLE4=Baby, I Love You
TTITLE5=(You Make Me Feel Like) A Natural Woman
TTITLE6=Chain Of Fools
TTITLE7=Since You've Been Gone (Sweet Sweet Baby)
TTITLE8=Ain't No Way
TTITLE9=Save Me
TTITLE10=The House That Jack Built
TTITLE11=Think
TTITLE12=I Say A Little Prayer
TTITLE13=See Saw
TTITLE14=Day Dreaming
TTITLE15=Call Me
TTITLE16=Don't Play That Song (You Lied)
TTITLE17=Border Song (Holy Moses)
TTITLE18=You're All I Need To Get By
TTITLE19=I'm In Love
TTITLE20=Spanish Harlem
TTITLE21=Rock Steady
TTITLE22=Angel
TTITLE23=Until You Come Back To Me (That's What I'm Gonna Do)
EXTD=
EXTT0=
EXTT1=
EXTT2=
EXTT3=
EXTT4=
EXTT5=
EXTT6=
EXTT7=
EXTT8=
EXTT9=
EXTT10=
EXTT11=
EXTT12=
EXTT13=
EXTT14=
EXTT15=
EXTT16=
EXTT17=
EXTT18=
EXTT19=
EXTT20=
EXTT21=
EXTT22=
EXTT23=
PLAYORDER=
